<mxfile host="65bd71144e">
    <diagram id="pGkI_z_aHP8on-1SRhb4" name="Page-1">
        <mxGraphModel dx="1827" dy="-1421" grid="1" gridSize="10" guides="1" tooltips="1" connect="1" arrows="1" fold="1" page="1" pageScale="1" pageWidth="850" pageHeight="1100" math="0" shadow="0">
            <root>
                <mxCell id="0"/>
                <mxCell id="1" parent="0"/>
                <mxCell id="2" value="" style="group" vertex="1" connectable="0" parent="1">
                    <mxGeometry x="-810" y="2230" width="184.45" height="247.5" as="geometry"/>
                </mxCell>
                <mxCell id="3" value="&lt;div style=&quot;text-align: center;&quot;&gt;&lt;br&gt;&lt;/div&gt;" style="shape=note;whiteSpace=wrap;html=1;backgroundOutline=1;darkOpacity=0.05;strokeWidth=2;fontFamily=Arial;fontStyle=1;fontSize=14;align=left;verticalAlign=top;rounded=0;size=29;flipV=0;flipH=1;spacing=12;fontColor=#000000;" vertex="1" parent="2">
                    <mxGeometry width="182.91" height="230" as="geometry"/>
                </mxCell>
                <mxCell id="4" value="" style="shape=image;verticalLabelPosition=bottom;labelBackgroundColor=default;verticalAlign=top;aspect=fixed;imageAspect=0;image=data:image/png,iVBORw0KGgoAAAANSUhEUgAAALQAAADKCAYAAAAM5WqDAAAMP2lDQ1BJQ0MgUHJvZmlsZQAASImVVwdYU8kWnltSIbQAAlJCb4KIlABSQmgBpBdBVEISIJQYA0HFjiwquBZULGBDV0UUOyAWFLGzKPa+WFBQ1sWCXXmTArruK9873zf3/vefM/85c+7cMgCon+CKxTmoBgC5onxJTLA/Y1xSMoPUDRCgD6iADPS5vDwxKyoqHEAbPP/d3t2A3tCuOsi0/tn/X02TL8jjAYBEQZzGz+PlQnwQALyKJ5bkA0CU8eZT88UyDBvQlsAEIV4owxkKXCXDaQq8V+4TF8OGuBUAsiqXK8kAQO0y5BkFvAyoodYHsZOILxQBoM6A2Cc3dzIf4lSIbaCPGGKZPjPtB52Mv2mmDWlyuRlDWDEXuZEDhHniHO70/7Mc/9tyc6SDMaxgU82UhMTI5gzrdit7cpgMq0LcK0qLiIRYC+IPQr7cH2KUmikNiVf4o4a8PDasGdCF2InPDQiD2BDiIFFORLiST0sXBnEghisEnSbM58RBrAfxQkFeYKzSZ5NkcowyFlqfLmGzlPw5rkQeVxbrgTQ7nqXUf50p4Cj1MbXCzLhEiKkQWxQIEyIgVoPYMS87NkzpM6Ywkx0x6CORxsjyt4A4RiAK9lfoYwXpkqAYpX9pbt7gfLFNmUJOhBLvz8+MC1HUB2vlceX5w7lglwUiVvygjiBvXPjgXPiCgEDF3LFugSg+VqnzQZzvH6MYi1PFOVFKf9xMkBMs480gdskriFWOxRPy4YJU6OPp4vyoOEWeeGEWNzRKkQ++DIQDNggADCCFLQ1MBllA2N7b0AuvFD1BgAskIAMIgIOSGRyRKO8RwWMsKAR/QiQAeUPj/OW9AlAA+a9DrOLoANLlvQXyEdngKcS5IAzkwGupfJRoKFoCeAIZ4T+ic2HjwXxzYJP1/3t+kP3OsCATrmSkgxEZ6oOexEBiADGEGES0xQ1wH9wLD4dHP9iccSbuMTiP7/6Ep4QOwiPCdUIn4fYkYZHkpyzHgk6oH6SsRdqPtcCtoKYr7o97Q3WojOviBsABd4FxWLgvjOwKWbYyb1lVGD9p/20GP9wNpR/FiYJShlH8KDY/j1SzU3MdUpHV+sf6KHJNG6o3e6jn5/jsH6rPh+ewnz2xhdgB7Cx2EjuPHcUaAANrxhqxNuyYDA+trify1TUYLUaeTzbUEf4j3uCdlVUyz6nWqcfpi6IvXzBN9o4G7Mni6RJhRmY+gwW/CAIGR8RzHMFwdnJ2AUD2fVG8vt5Ey78biG7bd27+HwB4Nw8MDBz5zoU2A7DPHT7+h79zNkz46VAB4NxhnlRSoOBw2YEA3xLq8EnTB8bAHNjA+TgDN+AF/EAgCAWRIA4kgYkw+0y4ziVgKpgJ5oESUAaWgVVgHdgItoAdYDfYDxrAUXASnAEXwWVwHdyFq6cLvAB94B34jCAICaEhdEQfMUEsEXvEGWEiPkggEo7EIElIKpKBiBApMhOZj5Qh5cg6ZDNSg+xDDiMnkfNIB3IbeYj0IK+RTyiGqqLaqBFqhY5EmSgLDUPj0AloBjoFLUSL0SXoGrQa3YXWoyfRi+h1tBN9gfZjAFPBdDFTzAFjYmwsEkvG0jEJNhsrxSqwaqwOa4L3+SrWifViH3EiTscZuANcwSF4PM7Dp+Cz8cX4OnwHXo+34lfxh3gf/o1AIxgS7AmeBA5hHCGDMJVQQqggbCMcIpyGz1IX4R2RSNQlWhPd4bOYRMwiziAuJq4n7iGeIHYQHxP7SSSSPsme5E2KJHFJ+aQS0lrSLlIz6Qqpi/SBrEI2ITuTg8jJZBG5iFxB3kk+Tr5Cfkb+TNGgWFI8KZEUPmU6ZSllK6WJconSRflM1aRaU72pcdQs6jzqGmod9TT1HvWNioqKmYqHSrSKUGWuyhqVvSrnVB6qfFTVUrVTZaumqEpVl6huVz2helv1DY1Gs6L50ZJp+bQltBraKdoD2gc1upqjGkeNrzZHrVKtXu2K2kt1irqlOkt9onqheoX6AfVL6r0aFA0rDbYGV2O2RqXGYY2bGv2adM1RmpGauZqLNXdqntfs1iJpWWkFavG1irW2aJ3SekzH6OZ0Np1Hn0/fSj9N79Imaltrc7SztMu0d2u3a/fpaOm46CToTNOp1Dmm06mL6VrpcnRzdJfq7te9oftpmNEw1jDBsEXD6oZdGfZeb7ien55Ar1Rvj951vU/6DP1A/Wz95foN+vcNcAM7g2iDqQYbDE4b9A7XHu41nDe8dPj+4XcMUUM7wxjDGYZbDNsM+42MjYKNxEZrjU4Z9RrrGvsZZxmvND5u3GNCN/ExEZqsNGk2ec7QYbAYOYw1jFZGn6mhaYip1HSzabvpZzNrs3izIrM9ZvfNqeZM83TzleYt5n0WJhZjLWZa1FrcsaRYMi0zLVdbnrV8b2VtlWi1wKrBqttaz5pjXWhda33PhmbjazPFptrmmi3Rlmmbbbve9rIdaudql2lXaXfJHrV3sxfar7fvGEEY4TFCNKJ6xE0HVQeWQ4FDrcNDR13HcMcixwbHlyMtRiaPXD7y7MhvTq5OOU5bne6O0hoVOqpoVNOo1852zjznSudro2mjg0bPGd04+pWLvYvAZYPLLVe661jXBa4trl/d3N0kbnVuPe4W7qnuVe43mdrMKOZi5jkPgoe/xxyPox4fPd088z33e/7l5eCV7bXTq3uM9RjBmK1jHnubeXO9N3t3+jB8Un02+XT6mvpyfat9H/mZ+/H9tvk9Y9mysli7WC/9nfwl/of837M92bPYJwKwgOCA0oD2QK3A+MB1gQ+CzIIygmqD+oJdg2cEnwghhISFLA+5yTHi8Dg1nL5Q99BZoa1hqmGxYevCHoXbhUvCm8aiY0PHrhh7L8IyQhTREAkiOZErIu9HWUdNiToSTYyOiq6MfhozKmZmzNlYeuyk2J2x7+L845bG3Y23iZfGtySoJ6Qk1CS8TwxILE/sHDdy3KxxF5MMkoRJjcmk5ITkbcn94wPHrxrfleKaUpJyY4L1hGkTzk80mJgz8dgk9UncSQdSCamJqTtTv3AjudXc/jROWlVaH4/NW817wffjr+T3CLwF5YJn6d7p5endGd4ZKzJ6Mn0zKzJ7hWzhOuGrrJCsjVnvsyOzt2cP5CTm7Mkl56bmHhZpibJFrZONJ0+b3CG2F5eIO6d4Tlk1pU8SJtmWh+RNyGvM14Y/8m1SG+kv0ocFPgWVBR+mJkw9ME1zmmha23S76YumPysMKvxtBj6DN6NlpunMeTMfzmLN2jwbmZ02u2WO+ZziOV1zg+fumEedlz3v9yKnovKit/MT5zcVGxXPLX78S/AvtSVqJZKSmwu8FmxciC8ULmxfNHrR2kXfSvmlF8qcyirKvizmLb7w66hf1/w6sCR9SftSt6UblhGXiZbdWO67fEe5Znlh+eMVY1fUr2SsLF35dtWkVecrXCo2rqaulq7uXBO+pnGtxdpla7+sy1x3vdK/ck+VYdWiqvfr+euvbPDbULfRaGPZxk+bhJtubQ7eXF9tVV2xhbilYMvTrQlbz/7G/K1mm8G2sm1ft4u2d+6I2dFa415Ts9Nw59JatFZa27MrZdfl3QG7G+sc6jbv0d1Tthfsle59vi913439YftbDjAP1B20PFh1iH6otB6pn17f15DZ0NmY1NhxOPRwS5NX06Ejjke2HzU9WnlM59jS49TjxccHmgub+0+IT/SezDj5uGVSy91T405da41ubT8ddvrcmaAzp86yzjaf8z539Lzn+cMXmBcaLrpdrG9zbTv0u+vvh9rd2usvuV9qvOxxualjTMfxK75XTl4NuHrmGufaxesR1ztuxN+4dTPlZuct/q3u2zm3X90puPP57tx7hHul9zXuVzwwfFD9h+0fezrdOo89DHjY9ij20d3HvMcvnuQ9+dJV/JT2tOKZybOabufuoz1BPZefj3/e9UL84nNvyZ+af1a9tHl58C+/v9r6xvV1vZK8Gni9+I3+m+1vXd629Ef1P3iX++7z+9IP+h92fGR+PPsp8dOzz1O/kL6s+Wr7telb2Ld7A7kDA2KuhCv/FcBgQ9PTAXi9HQBaEgB0uD+jjlfs/+SGKPascgT+E1bsEeXmBkAd/H+P7oV/NzcB2LsVbr+gvnoKAFE0AOI8ADp69FAb3KvJ95UyI8J9wKaIr2m5aeDfmGLP+UPeP5+BTNUF/Hz+F8JlfE/0zHMuAAAAXGVYSWZNTQAqAAAACAAEAQYAAwAAAAEAAgAAARIAAwAAAAEAAQAAASgAAwAAAAEAAgAAh2kABAAAAAEAAAA+AAAAAAACoAIABAAAAAEAAAC0oAMABAAAAAEAAADKAAAAAMJZZ34AAAK2aVRYdFhNTDpjb20uYWRvYmUueG1wAAAAAAA8eDp4bXBtZXRhIHhtbG5zOng9ImFkb2JlOm5zOm1ldGEvIiB4OnhtcHRrPSJYTVAgQ29yZSA2LjAuMCI+CiAgIDxyZGY6UkRGIHhtbG5zOnJkZj0iaHR0cDovL3d3dy53My5vcmcvMTk5OS8wMi8yMi1yZGYtc3ludGF4LW5zIyI+CiAgICAgIDxyZGY6RGVzY3JpcHRpb24gcmRmOmFib3V0PSIiCiAgICAgICAgICAgIHhtbG5zOnRpZmY9Imh0dHA6Ly9ucy5hZG9iZS5jb20vdGlmZi8xLjAvIgogICAgICAgICAgICB4bWxuczpleGlmPSJodHRwOi8vbnMuYWRvYmUuY29tL2V4aWYvMS4wLyI+CiAgICAgICAgIDx0aWZmOlBob3RvbWV0cmljSW50ZXJwcmV0YXRpb24+MjwvdGlmZjpQaG90b21ldHJpY0ludGVycHJldGF0aW9uPgogICAgICAgICA8dGlmZjpSZXNvbHV0aW9uVW5pdD4yPC90aWZmOlJlc29sdXRpb25Vbml0PgogICAgICAgICA8dGlmZjpDb21wcmVzc2lvbj4xPC90aWZmOkNvbXByZXNzaW9uPgogICAgICAgICA8dGlmZjpPcmllbnRhdGlvbj4xPC90aWZmOk9yaWVudGF0aW9uPgogICAgICAgICA8ZXhpZjpQaXhlbFlEaW1lbnNpb24+MjAyPC9leGlmOlBpeGVsWURpbWVuc2lvbj4KICAgICAgICAgPGV4aWY6UGl4ZWxYRGltZW5zaW9uPjE4MDwvZXhpZjpQaXhlbFhEaW1lbnNpb24+CiAgICAgIDwvcmRmOkRlc2NyaXB0aW9uPgogICA8L3JkZjpSREY+CjwveDp4bXBtZXRhPgpAG89DAAAx+UlEQVR4Ae19CZhVxZX/gd676ZWGpulm35tFERc24yDBcUmcLGNMTDKT6GRmwmd2df4uI0adz91Eo8aIETUYt0SiRhRUCLKjgGzNIltD73TT+779zzmP3+O94hX9utm6X1fx0XVv3apTp86tV/dXp86p6tXGgVxwEggRCfQOkXa4ZjgJqARch3YdIaQk4Dp0SL1O15hwmwheXP8cHSjZQ7++5lHNsj5nDSVGJ1JFfYWLnRzOej8Ymzbe1lX90q0demPOWr+M7sZJoDtIwAo5RPkxZfDU7tAGx6OTgFcC1hH6qetf9GaSi169eslfFzs5nJN+IH0wmNDLpoc2MXQwxHzz3L/kTsXa35h8A/Xu1Zta21oponcE1TfVUVNLE0VFRFN1fRVFhkVSdGQM1TbUaPzH1U/RTTNupsNlB7l8EqUlpFNlXQUN6ztCye8v2av56hprlUZzSzO98tkLdOcV9+nzm1//AWUNnETXT/k3LRcZEaX1Prn8QfrxZb/SPL58FFcX+tUjXybh55kVj2r+jIRMP7pXjrtWn0t7hP9P9n5EkzIuoCXZ7yrfmYmDNP9d7/6CYqLiqKWlhW6cPlcHgjYu04tlIfJoaW3R8n2i4zV/Y1OD0v37tr8qvTZqU74SY5OV/6r6Sm0v6O8s3E4FlXm05sAnKufdhdna7uz8rRrnlx/W+scNmEgXD5lOKPeTN35ICTFJLM+RlMjxij0fUr/4NMpIGqz3H+x4m6LCo5jHMKWzi+tJ7ZNGxZUFXvqSf97VDynfP33zRhrD+La4qoASY1P0Pd9y+V2E9zD30l9qvrP1xzpCnyqGDusdzp01iu5+55cUGxmnQowIO96hU/qk0iVDZtCGQ2upsDyXIrhjx0TEUHNrM728YT6NS5ugnf/1jS/TleOv9Xbo1za/rPmVJr/ssupSP1mFh4VTemImPbn8IS33921vMe0Iyko/T/M9s+IxvccPa+bIy/3qWf7Fh0p/6rAvBaSL+tMSByr/1Y3VVMP/65pqle875tyr5eKiE7QTH60uoWc/eZwa+Uc8Y8Rl9M6WN1UeA5IytPzneRs1f2NLo9Y7NHWk0qvkDiw8vvLpC15+E7i9oL+9YAtNG34pyWRd5Ix27ynK1vbL5F2+qlksx615m70dWiqLjepDhVX5VMQ/ZpF3HP+ocF/G/ApvoDeq/zjqzx16wdpnlO7W3E2aX5nmP/Ke+8cPoNFpWZpv6e739BHKI9/Zis8Yhm5ta9FRNol/tYNThzNYIRZShI5Ojc0NKogvj7mKCsoOe9Ok0UlxfbVj5/IIvebASorkkTyvItcrD+RHPhnJmloavM9lhJXRDOVQbzLT/WDHOyfwYdYD+sgPwqCL5/Iihf/R/cdSLrcB/CB/fWONjlZN3FElZPFIuS3/c4I8UD4hKoEG8lcAdEEPfIF/k76MsvLlgpzBH2LUX15XRin8DhAyUobo10y+iA38lRuZNpaqmA7uZ2ddTRcPnUmgg3K4R36kyw/7usnfpfUHV9Gqfct1gHlu9e9OKI/8Zzq2Qo7TUbH8+vF5DevdWz+3f/7sJarlEe1H02/WKiRPOHeO+Wueoh9O/W+9NusWiCKjrATkRx7zHukSSznUy+hfH0kHkM++yQfyy6gm/NjCyerzLYN6pF4pIx1CeJF5iMANtAdlbHR96SCvxPXN9bSraAednzHlBJnIc5TbwNqqi3hyL++hJwRrhzYxtNNDO/37uVyHcHronjAcuTaeIAHrd0g+kU4PfYK8XEIXl4AVLDo9tGBup3fvKusPwf6OrBg6WAIun5NAV5KAFXJ0JSYdL04CwUrAdehgJeXydQsJuA7dLV6TYzJYCVgnhaYe+pFl9/HiQCt996KbvIslYssQH5Og6YfLck5qe/DAh/PYpmAazR59pfJ27/u3U3h4hHcpN1iGXT4ngZNJwNqhTVsOMegRgxzYZsAWYena99RGoZXVfCezPbhm/NfoSHWRl5fCijyKDI/03rsLJ4HTIQFrhxY99IU8oiLEhMdQPHtq5MUeUuMVWb4VW4bcskNqoyCrSNmFVbrALDYbSZGxarWF8sv2LFHbg5iIWEqKSVYrOjGKccFJ4HRKoMNqOxmlfW0RYC8h5oYSYEMA2wkbs0JHdJzt5bOVd+lOAoEkYJ0UCoae994t3jKPLrtfrwvY7LCk9gjlVeZSMUOIQ2wVl1+Z780397V/o6dWPEJrD67kEXsbiV2w5EWMjGIs4zozpOHi0yUBK+QwMbSYaUoAhhbzRdg3+9rpMlIhMcLPTB6qmBp2yIhPF+OOjpNAIAlYR2jTlkMM6cXOFfa8NjvdKUMuIfEmgT0v7IoRB2LCpTkJnC4JdBpDm3bGp4shR8dJ4FQkYIUcph5afNH69ulH/5z1VT99M1yZxA9PcLFM9nx99trzHaRjUCYzcbC2Q7C6+KTBd/B59jEUnzz4xKGxc1/7Pg3rN4puuOhGrbemvlp98uCbJ3z4+vyJy1Y8e4eIj6HwKR4awtvi7YvUh28qe2lIELwv/H+46332lMmh22bP0/RT9ZE026lE+c9jy/9PHRG+x/p9mSSXVh9RPv+04XmvL6LwA5/IpuYm9aHsF9fPj2+sE3zzvBu0XfDJFGgoQWhLu+HLaK4fiLeJ+EZmF2zj8jFU01DpR39P8S4tL+9ZaMHXEv3iRzN/6kd/IbvRiQ/noaMHtL9EhUcrX+Z7VOZO4x9rhzYxNOosZGdJU98smo7y2qOd8h3ExPD2Ob/WKoDV4bsnvobik3f/V38DFjQewa5Djc2NXkwfyY6d4pMYK/5x7KNo+vw9+fEDlJ48yMtnHPvVCfaPZkGLTyACfA4Hsl+iuE0hnKqPpNlO0M0p2acd4c/s6Cuaok0H1iqf8lzaLTMXX5/Ip9l5V4K0Vfh+5bMX2cPGo2GS9Pmrn9R2wSdzcfbbkkw72XlWftS29QP4Rh4qO0DnD7qQinjy7yuXvbzp0PaCzUpL+JRBxzdgbgX6mDOhv4gTse9cy7fs6bwOGkOLblk6ELAxMLT86sVH0MTWSIfvHHzmJK8E+MjJyDyGHSwRgNWRHz5569hnTUYJhINH9uqLRr2gi3KoFz56cdF9tBMgP+rHc9BFu9ITM2hE39FIVnWkjHooj3wdbafZjiGpI7iTZVJlbTmVVBWxA6qHT7Qb9WAOAh9K8D2DnXkv4a9LaVUxyVcK7cJ7gs8i+IZc4OOIfKAnI/rnhz/z+kpCAEvYG3xI8nAvn0hHvzDpg1/QB18od8Zinvx1KrS0NrfxZ71t4acL2niy2Mafsjbu8Bz7p4M4j+J6KXlxLQmPfHxfW0VdObJ5Y988cs2+cW11TXXe57hAvaDrWw55fGPk903zvQb/vmm4Ftooj3xov28euQY/SEc7be0IxLenPo88QSdQPnkG3pDPjME30vGucI84vzKvrbTmCG5PiG31m/RPKHiWEsLu4RDo1yIYetGWV2nW6Cv08SMf30ubDq+nTPYaFshRVFVItey6n83u9JMyJisObGxtpKbWJiqqLGQHzu2a3pexnowqcApd9PmrNI73zahijCaftAkDz1MHUvk0Cb0EXnGUcKB0n97vKNzKeK6a/rJpIY3POJ8eXjqPxqRPINme4FN2AE3t05/KGO6MS5+oWwlUN1Ypf3GRfZTOrxf/D41kz+xKrq+Kn8mKZhh/osWWZET/MZomfFTUl1M+L8c/wft3jGX6O7hd4j0u2wmALxmNc3iUfnb1b5nmGOa/hqYPu5SmDLpYtxOo5jrEpV/C+/yp35a/mVr5n9Ap4vb15npX7V+ue2kM5X1GhJ/fLntA+RCMKXIS3iSI3l7k5IECNcx/hbarmEdx4UfKVjLPR6qL9X4ny7u6oUr5F/lATjJCSxDcC9pyL9fiLGyG+Kh4/pLFmsnee5FBoGDSD5TnbKQFjaFlX4lbZ99Nd7KgffXPwKDAvMmxfXU/DGCyrfxSZcOYscdgBbAVMJdNn21iQZRDvGrvMt3rY09xtv6YTAx/z9UPq/ywX4bgTMF+6bxlgFxXsHu/YNQC7sS+2BL0bdgPGBb8/+5bCwK+J2Bu0IE8TMwMPr466boOyam85qja0Kzd/4kfZgb/iAMyF8KJgX9u3GD+Qvj5FEYyhn5h7e+P22oc2z8D2AvYFfthIJ0/zYo/IUNgK2AuYERgLNkJSFYYcQ8MhnKIo1lDMYD3hACGNemZdIBRgTmBUVEO2BL0US/4AD1gWJRDu8xYTAAEc4MO5GFiZvDRUTkBA4M/1AP+EZt8hfp9h/TQsruPjG7yqcKsHQLy3VeCcZYXYuC5GYtajXEXf/o8+3WY9Mz85v3Hez6gIzwRamE6ss/HTdPmnpSeL3+gJWnygxA+AInwzBaDDvhHOdkBKiEq0fslkvLIG4iW7zPfazMv6jHlJDKWNNjQmOV66n2HOnRPFZJrd/eRgBVydJ8mOE6dBI5LwHXo47JwVyEgAdehQ+AluiYcl4Dr0Mdl4a5CQAKuQ4fAS3RNOC4B16GPy8JdhYAEXIcOgZfomnBcAtalb9Me2u0P7faHdvtDH//huCsngbMiASvkMG05zgo3rhIngVOUgBVyuP2hxWyKLUzY7NLF514OwfZz6wht7sshI7b4xbnYyeFc9INgO7R1hLb5FAZL2OVzEjgXErCO0A5Dn4vX4eo8VQlYR2iHoR127kpzh2A7utUe2tRDB0uwp+XDPiI427qmqUb3yz5UckDPxhb/P1+Xf3aepdLaEsK2DT1NXme6vdYR2mHo4EQvLlkScLZ1ztH9utkO7veW7Nbn2D/jn0bNoTX7V2ia+3P6JeAw9CnKFPuIyJxDvLtlH+0B8QNVGyT3eA5fRvHGlk1xXDgzErBCjjNTnaPqJHBmJWCFHCaGdrYczpbD2XKc2R+jo+4kcIIEHIY+QSQuoTtLwAo5nB7a6aG7ox7aOkI7Ww5ns3EubDZstkLBfjWsI7TTQwcrQpevK0nAOkI7W46u9JocL8FKwDpCOwztMHR3xNBuYSXYn77L1y0kYIUc3YJ7x6STgCEB16ENgbjb7i0B16G79/tz3BsScB3aEIi77d4ScB26e78/x70hAdehDYG42+4tAdehu/f7c9wbErB2aNOWwyjnbp0EuqQErCuFpi0HfOKa+cQoOQnLxU4OZ6MfXH/B9zv0w7F2aLHluHDINC8x8YnjfbHkAEMXOzmcvX7g7YHBXbil7+Dk5HJ1EwlYR2jTp7CbtOeMsXnHOz+niXym+Zp9/9AjmYf1HUmJMUl08Og+kuOhdxdm6z4ccy/9pfLw/Jqn9fnHuxbTeD7PfGfBNhrWb5QeLy0ZfvrmjXxOeRof+tlEibEptCPvc4pib3A5SDOLz/gGnTPWoBAlbO3QJoYO0fYH3azM5MHc+Vo1f2xUHyqsyqei6kK9lzPQf/6X/6D0xEwvPTwXhLa/ZC+NSBtLjc2N3udytnd/7tDF1UUar9r9EQ1IyvDu7+HN6C46JAGrlsPZQ/vLMbx3OO09spMyUobQnVfcR7UNNdTQWEs4A13kJftwIOD5lCGXUB3nO3hkb8Djl9cfXEWr9i2n2VlX08VDZ3r38wAdF3dMAg5DBykvz9naYXo2uFlEzkCPDIs0k939OZCAdYR2emj/tyGH1MtB94GC68yBpHJu0oLG0E4P7fTOZ0PvbK5vOD2005OH1jpBBwd6h6E7KDCXvWtLIDAo7No8O+6cBKwScB3aKhr3oDtKwHXo7vjWHM9WCbgObRWNe9AdJWBV25m2HHKGSL/4NPqPmT9RfWwTL+PKYkMxL/8mRiexPUIyRfSO0NWyqIhoykwcpPLIq8zV9A93vU95FTl02+x5mj7vvVvUhuFfJl5Hkn/x9kU0KeMCGpQyVOm3sJlqdX0Vxcck6H1rW6ueXbJ4+98031ReVZOws3A7FVTm0VubX1X+mniRIyYqjhqb6pX+0L4j6OIh0/34aWNavVinLHrld7f+ReltzduksRwxIe2JYvsM4auV+ZB2RkfGaP2ZiYO1Xvena0rA2qFNW47m1maKi46nu9/5JcVGxlEc2zPIi5458nKqb6qjVz59QZd25TqBO/cdc+7VFj+z4jFNH8h2DlkDJnqlMHPkbLVhmL/6Sc0vBj41jdVe+mLXcMmQGfTqhwu0vhiuc8aIy6ia80g+hO0FW2ja8EvZPtvDn/Akp7+Cvhj8bM3b7O3QTyx7UOm8s+VNpSsGQ0IPdCt5+VrasCT7XeWrsrZM2xnGS99Sf+ZE16Eh+64YWzu0aQ89ko1rquoqKIktw6SzlVWXsLFNA+WWHaTswio+RFgOzomgpMhYtRpDY5GenphBI/qORjKJDUNyTAolxfXV/KP6jWFah730ZYT+8pir6P0db2t9/WL707b8z+n8zCmaD4QS2OKtkvkCf7JjZhTzAPpTBl9CKcwzgvyohA7aMbr/WKWHuLK+TNsDvqp7VWg7pwyerOXki+JC15VAh/XQ8umXzvbG5leolke2H02/WVvX2tain3E+FdqvtbZ0v0w+N6AvS80ScC/XYb0FJoTJpTfUN9fTrqIddH7GFE0z65OjNC4aPFXhhWSQEVzoyL5t0g7Uo4UD/JEVUmnnDy75r4D1Byjiks6hBMLu4RCofsHQi7a8SrNGX6GPBatuy99Mi7a9QWsPrqSS6mJ1xXp765tqAvnOtr/QhpzVOkq/tOE5Kqk5QvHRiYpHpZPLeX7T2etFyopVWiPbAVfWl9NrG1+iJr7OTPJ8yvOr8kiMff7G2PaDnW/TzOGzuCOF0YHSfVTHnbeqsUohwVbmRejUsiVbQkyil86g5KFcWy/665bXqKqhkjHymzQ2faJeC5Q4wuaadc11ypfQRbjr3V/QmPQJVFJVrM9f5Y4sfCUybdkpenz6JP3BIn9uxWHKr8ijhtYGhSyNLQ1UVFlAb25eqOXEVFTqKa4qIjmrsLyuTGXy+Mf3az3Cm0Cd+Kh4JQl+n135uPe58FvINKV8AsvSN9j4hRyRF/mkvs7Qyyk7QBsPb6BxaeNBskvHVshhYmhg1aeXP0wpffrR8P5j2MIsimAn3MTwIzI8kj7avZhkwpiVNsEPu+I8P3lBItgX1/0hICa2Ye7f84uOieCJGYtTRtXzMi/0w7rA4L7Szkhi3J5+niaBrtTti/GRH/le2/wyFZbn0tDUkdrhhvcdpZ0S+RC/tP4Pfhg/JS6Vrhx/rReLg47MN6Q+YPEp/LWQgLnI7761ACTpdPDrJXbsAu063e036+kq91a1nWkPDaw6hkc7uZZP+2HGz7ATFq2BjEpZAyZRDdsKy4jki11xXp9g7jUHVuoEUbAssCsEYsPcgtcl4DnoCNaVjm7SAb1kfv7Bjne85ZB/HWP4PcW7kI2Qr4BxvGg/THpmfpkkCsYXLD44dThFskYkryLXWw50UJ/QlDagHpTzMnDsAs/RTpQ360c+1AN+bfk6Sw/8mXSR3uVi7rhBhbqmurbNuZ/55WU82saduI2xaJtcS4yw7uBqv3ukI/aUa8atN25pbW5j3Oy9xwUfKXysjsDPkQ8xazbaGD/jlnnxL7chZ22btMkM0g7fwC+ybXv+ljZbfmmztEUCYrk26Sz8dEGbtAHBt5yknS5+7XyemfajPV0lDhpDHyzdryMzMOwDS/6XxrHvWzVjWsFnlfUVVFpTorhRPusycguGBPYDRlzPOFvyP7fqCT9sC6z4zMrfMIZuoOHss+cbFn3+qtZXytoVmQgC4/7p0z9qftFF+2K9tPgBlMG6cNT7h5W/5fomeLF0GE8uBau/tvFlWsow6dIRs7Q62DwDe0aFRasu/JMvPmK400aLWesi+XvzxFLqyxowQTG+FPbF5KCDNkwaeD5NGXQxbumtra8zpKkhYOYY1sz0jU31YmZTDhms9hSZgi9g/deZf8H6kIOoLLewTv0onyfuKw/5gsrcQtYF5P0IFBJ8n8rwUcLeI3uotrmWjtaU+s0hRH05jdWVgqGl/udYzSr19eL2C524yD5aXuYUlfxepX/I3MCcUyB/GX+5Ze6BemXSLXOl3jyfkTnRE8sf9M4hfOcYWkkQf4LG0CaGBTb704Y/ajUVtUc9CxD8+ReMGwirCkbMLT90Uqz4lfFf14mbyTvqAzYFxr1m/Nc0/8CEzIBYV+icDJv+63k3BDx721Yfzuo+WX0m77b7k/F1qnKw8QcsHcHzHdHzj03LUvbwfmN5rcF3DlHXVEsvb5jvXVeAvh507rn6YS0vk3sJO/O36o/FnFMgv1lvDf8IRJWKuRXkHmiOoRW088faofkT4rcvh+A/warAYsBwsnIWF92HPju4RjGi5Amkjzb5QHnQg/562Z4lqleWX34Kj1iCDSUgv2BGGQmBGQWHix5aJm8SBOv5ltNE/oPyZn1y9vblY686oRzym/W9umGB5gdds741Bz6hpJhknUP4xvIF6whfpyoHG39oP+YAyIf3a7ZXMLwsTiFA7qCD9ISoBOrD/wt4Qi3rFAy//OYUyG/Wi/UJUSbIesYF/BWTOQ/WCSBP30U51BkoDloPPX/NU/TDqf/NEyb+cB37fAlBUcf95/Sf0Lu8dC362pum/djvOSqVjicQRA53l/jiwZ5NbEy9MfJ/emgdTeTPtGgvfIOsCMqnzwwCZfpExquKy7cc6j1b9Zl84d5sz5nmS6BgIHnY5I33K/wGki/agdhGB+sG8pXmeYRXz2/LD3pm7EvHfHaye2uHfvG736aEAenU3NREUbGx1NzQQLHJKXTZLbdSWFgYRUV5frULFy6koUOH0trGXLpw0BjWFxdQaW0l3Xr5t7Xeez94kVcE4+knl33Tj4873n2OvZyzGLNV+uV/Yd1iv3sUemTZa0p/f0kBHeUR+dbLv9Mp+k+vXESHjhbRlQljqKCggG644QZU4eIQkIBVbdfa3EzRCYkUE59AYeERNObLcyjrmmto06ZN9MUXX/g1fdCgQXTVOI9+9dIRk2hA/PGl5qaWFu3kfgX4JjO5Py85F/NkzD+/eY9yoD8xY4Tf5Kuj9K8adwlNGTyWMjOP76GBOlzc/SVg1XIUZGdTXXk5tTQ1Uu/wMCo9eICqCouoV/pAHZ0HDBigrd+6dSsNGTKElu7fRPuP5tMH2etoZL9BPNuto+qGWtUGREdEUd3BYqqpqaF+/Tyz6j3FuVRWV8VagzV++X+7/A29L/3ikF/+NzYvU/r1jY08m67RDVk6Q3/l/m30z1kXUX1VLeXn59PEiccNprr/63QtsEIOiKaNR1hRuTAwRpJfLCN2XV0dzZgxwy8dN3VNMpmMojVr1tDkyZMpJiZGHzU0M5Thkd8WzPzIJ+Uiw8NVBSVpnaW/cuVKio+Pp/PPPx+kXRwCEmi3Q4dAG10TepAErBi6B8nANTWEJOA6dAi9TNcUItehXS8IKQmcuEJxrHmmTyH2M54z7mq1JZYFjnheGYrkCZ/YLaTHD9SSsqYvvoCy35v44cnOm6Zvnm9+sS1wPn4h1afOaWOsHdq0h8Z+xvtL96qdxvxPnqD05EFUzjYcYugCu17YCW84tFZtAkx7YDO/8/E7p+8/5Cq3Qg6x5YAxum+rYYcs9htit2Ha9WKtHna6sOeVUVnsBcz8vj5+YlcMWwHEqM+kg3K+vLlrJ4FTVtvZ1txNmwv45t00ba6fL5+s9zsfP9cRT5cErB160a2/0pOOKgryKfP8Cyg8OopikpJp5weL1cbjG4/9RnmY//VrKTwyihIGDlRbj4LtWylz8hSa+bOf+9l8wEbD09HD2PY3UW02UnjfDV/bjNPVsK5Cx5yL3LTwW2q99v2p/+m3/4d4/8h+IJibiJml2DaXVrNvJs9VhvH+IhJyKw5pjH1F6ng1VuYqMrDI3AXmoJqpB/6xYuhkNjiK5Q5cXVJCSZmDKPfzTVTBS8Ww8YCsqoqLKZmfi61HPC+H52/bQsV7dqvNR1JSEk2YMEGzio3GuoPZ9FnOTl7pi6CvTbxU78ekDaFV+7eAXMjF5lxEtn8Q80rY/2L/j3Hsgyk25JibpCWm82Q7jDYdWKtzlce+8azKBvbne4t26txF5jFiv5yWONDPvjnkBBlkg6wdOnXoMO2gu5YuofrKCmpgO4wwXnIekDVBbTxAf+K1X6PIhHja+8kKiuubSsOnz6QD69ZQMxs3tfCyOcLjbC03a/SF1D8hhc0aYwj32QUH2MywGdlCLjbtyuUslTg2c5W5gdj/wt4Y95ibVNaWH9s8xzNXgWBgf17C3ibywzhUsl+NtTB3Qb6eGlshR3sCWfbYo9SLjZZm/ewX7WX1e87egmoWIu5AEkzbDL/MPfjGnINAFLA/78PbH7BfosKSYOyXUT7UY2uH7iiGHjZzpmLsgu3bVMhz7r7HYWjuPTYMfcuX5yn2Fc8OCQWsj3cYWkVxSn+skKOjGLo8N1cxdsqwYRSbmOww9LHXYsPQ8I0c3X8cRUewgyw7qzoMfUp9WQtbO3RHMXThjh2KsUv37qWj7NGSlJ7uMDSL2IahN7KLmfhGHuWFqciIGjaDrVFM7TD0qXVqK+Roj6zD0O1J6OTPbRgZpWzPHYaGhALH1hEa+uW4tDT1KSzdv0/1y4U7syme06LZNauFvUcQkL89ffRjy19X38BZoyZr0ZMZ+YN2d45tGLqzeugrxl6j+5/I/he++3Fjf21RA94042bv9sHdWXad4d3aoaFfFp9CUfDLp1P0yxdc/21V56144rceT5ZjtSJ/e/po8Q08Ul3WGV67ZRkbhu6sHvrB9+9SvXS0sf8J9vYz99HolkI7BaatHRr65ZI9eyiC3aagX0Zd/UaO8huhkb89ffQ/vtjE/oa1hBEa9EI1tmFo6J07qocGxhZ5+e5/4t1f29hHI1TlamtXuxi6PZ/CzmJpG0Mu3SMBG4aGfDq6zwXKhXpsHaGBidvD0F+5//9URsjfnj4a+2uY+3eEqqBtGLqzemjZFxt26A5Dn9hrrB0amLijGLo9fTQwNGw7TmQptFJsGLqzemiHoU/eP6wdGpi4oxi6PX00MPShTYVq23Fy9rr/UxuG7qwe2mHok/cJh6FPLp8z9rQ9jNzec4ehA78aa4decP111H/sOKopO6p66FaxnGPV3dcffVwpATO3p3cGZu4pWg1TzDYM3Vk99MGjB+iVz16g71zw78fsoD0WjTg/0XYuZE+xo7ZCjgHjJ+gGjcDQibx/ndhHIwBjO70zJBI4tmHozuqhn17xqFYEDJ6eNEjvb5/za42xD7N5LmRPsaO2dujiL/aQ6JrrystUDw3bDrw2YGynd4ZEAsc2DN1ZPbScItDMJw9gH2fYR6N2McoV/TT2XUY68oW6HbUVckAQph7a6Z0hmTMb2zA00hHDtgNHf9iwNfKFuh21tUMHi6Hb0zv/ce1i9RkUy7KRqRm0tyRP42snBN7c8cx2k7NP3YahO6uHdhj65O/QCjmCxdDt6Z1lP2fxGczhjcrF1Sq/7IjGPaVD2zA0MHBH7aEdhu5khw4WQ7end4bP4MDkfnqKFOKTsxU6T20YurN6aIehT943rJADxU4VQ8NnkDV+HOSPTFvadPswSempARjY1n7bc6QjBjZ2GNojSWuHNrHf/pK9qvd8htVGP77sV/TetrdoUsYFNChlqHZOcdiUfSHksBjZy66RNzqX/SL+vu2vmk9GFvGZk1NoJYhJqu8edx52jv+FPlXOEpSA/Kinb59U3YtCNqqResvqSpX+qn3L/fiS/Spk7zzoadGO51c/RTdOn6t0xSbCrCcpOlk9SmSPPhe6jwSsGNrEfsB8U/kAegk4rw7nyYlLvZx799Eu3oiGz7aW4HveXSUfqig+c4uz39ZnOM8Oe+LJzkrhPHG8/oLv63PoU/tEJ/jlRz1Pr3iEkvlY4ij+0Ui9VQ2eQ+1NvmJ4370ZfHBk5sTBSgftiOCO+uwnj+s3Q36EZj3fu+RH+gPp6Ru3qNC60Z+g97bDXnU4vw97z2GvOuwLgT3okB/5RO8qZ3zLeXZyKCTKQVYz+IdyydCZuFVgIvpUMz/qEa2JnP2He9BHfaBv7oEHvpow8nONgerho5T1PHMvQ+6iW0jACjlM7oHZzPRg97YLthzymfpUWz3Ib8bIL+myd57sQiTBtx1ybZ67iHIyarvQ/SRg7dDQQ8el9tX9NnZ/uFR9CSvy83Svuy/fepu2Nlibjt27W/jAIM/mMgyf6YEHGuj226O88aBB1o9F95OqD8fmXOTe929nmMOb7fC/QPEhPlNdTm5t4J1acYLrsH6j6MCRL0jiW2ff7UPdXZoSsGJo6KGhZ4Yv4Se/e1L3ugOhYG06Hn20kVJSehHvJsYb0BBdcIGnAyMGvVCLzblIZtJgnmMkkWz1FSjekrNBt/jCHngj0sbqMcOIQ00+p7s91g4NPXRtRbnut4GKRa8qe90hBGvTkZrai6L5lOOiojbiw2n5iLfe9NZbTTR4cC+Nf/az4+dJg3YoxKYeWrRC/fukUXF1UcAYe9/VsFe37IEn+uohqSPo4JG9GoeCTM5kG6yQo71KO2vTIZ05wsHT9sTrnndSAtYRuqMYuj2bDoehPWafDkN3sqcGWczaoTuKoYG1bXvbOQzteSMOQwfZMzuZzdqhO4qh27PpcBja84Ychu5kTw2ymMPQQQrKZeseEuh0h+4ezXNc9jQJhOZqRk97i669Xgm4Du0VhbsIBQm4Dh0Kb9G1wSsBa4cWG4R5793izegunAS6gwSsajvTBgH2ys1syC92yy52cjgb/QD28cH+mKwd2rRBEHtldu/Q3ZNc7OQgu2idlX4QbE8+ls+p7TooMJe9a0vAOkKbdrxduxl27u545+c0MWMyrd67nLIGTqKtuRtp/MDzqKAiX9N35H9OMVFxvBNRLvWLT6N5Vz+kxJ5f8zQlsv/jx+xSJvl3Fmzzs0ee+9r39T45pq/mW7n3Y0plKzrZgkvKXTf5u0rnrnd/ofQj2cZZfBtTYlL1eU7ZAbrl8rt0npLIrmQH2WdTyksQO+l5Vz2o1yb/uwq3a74SttaT/C2tTSTl9xTuUD4r2IsnMTrR277vTPl3pdNT/lg7tImhu6tAMpMH80tvZTercN4eK5O2HN5I4ig7qv9YTY9jn0VxwBXvlbjoeG8zC6vyqai6UL+skt+0R8Y98n11Em9uyR3s3e1/1XIgBPq4R/5IPpxewsyRsz1mpAM95qQbD61XO2nkN/kfxecaBjI/3V2wQ9vVPyGdIsOiCOVAp6fEVi2HYOgpg6d2eznIscF7j+zkjtlGVeyoO2XIJVTHZ7wgvb6xRr3HR7IhfVXdcTvv2oYaauB8yC/2yL5uWbhHPgjKvBf6zeyZXlpVTDX11YTnZdWl9Nzq39H6g6tIPNURxNZjVOoY3Hr5BP/eB8cuUB58iuvaYfbfRPvM/KF+H/IYWrY5EIda2TLBNyBdPvC9+BnOHvfNczqupYOt5U4rnunCg8lHe3WAz46Uk6+N/AACtbu9+rr7c2uHDhUM3d1fkOO/YxIIGkM7PbTTO58NvbO5vuH00PypPSv6UVfP2ZFzxwZoskKODtJx2Z0EuoQE/GdKXYIlx4STQOcl4Dp052XnSnZBCbgO3QVfimOp8xJwHbrzsnMlu6AErGo7Uw8Nm4IvjZqtiwOy4iX7QMuysdgoyOIE9lmW/ZrjYxI0HfsyP7f6Se++zZJPlm8lrD24UretjQqPVnoxETFUySt2f1zzlO5DLQsEUkdTc5Oez/eDqf+l9afHD+yC4nQsnWsJWDu0acsB2wDsBx0X1Uf3gS6vOar7L284uEaXhiPYRkFWxZaufc9vX2bs24x9n++5+mFtu3leX0NjHV05/lrKSj9Pn/+ZD5mUnUOLKgr0HvVjX+lzLUBXf9eSgLVDy8h44ZBpXm5hGyD7Lsum47KTvuyOOXDARNrGFmuyr6jss3x8v+ZDmv4vE69TGti3GflA2DyvT+rNq8gl7EMtmxrqUi4vUcv5fKgf5V3sJOArgaD10LApkMLSmWGo40n3QHFfmwikY19mVGru+4x031jKgr50ZvkxIXb7N/tKyl2bEgi7h4OZKPeCoRdteZVmjb5CH//mHw/QjOGX0YHSfdTY2kjFVUVU21RLFXXl9Myq39DI/mN0R/2S6iNU11xHb2x6Wd20ZOsrCetz1tBLG56jy9hcUgyB7v77r2hz3kaaNuxSfS6H30xnrxg5W0XKV9SXU2VDJdU01VBNYzU98uE9NCZ9gtr6itGNWKot3b2YLh0xS8vjzyMf30ubDq+nzJQhegTGA0v+V8s9vHSexlVCk+k1tjRQUWUBvbl5ITWxTfHh8hy1xmvkazk6Q6CQtA+H8djq++mbN9KnvENoZESUt7zQF/7zK/LYZrmfsvbAh/O0zvSEDLV3ljZIkLmJ7ESawmfGSLniqkKt97WNL/nxJUd6CD9VvCup5Hto6d3aHjnhQILJn688wY/Is73yu4uyaV/JFzQ+fZLS7W5/rJDDxNBidC4BZ5TE8tklcpaKmEFKeGLZg4qZdxRu8ztbRR/yn4+48zU1N/LEznOWSiOPwrKJNwLoAyPLFrIScBbLNP4x+YZ/GjWH1uxf4Zuk10JXNgW/kw3rZZQHFkcM+ilxqYrVge1xBswrn76g5aRTS/vumHOv0rXVBzvo/aV79Yfw2Ef3kcgGZ8HgjJZrxn+NjnDH3Zq/2e/sFtvcJJonydIRwdeS7HeVn31Fu5Q+5AF5mvwFK0+zvBxyL3bg3TVY1XaCZX3toWG/izNKcJaKCK6JRzucZYLnwMwQTNaASVTDmhGcpTJ50EU0Ji0Lj/WHIaMMzkYxz1YBpkYBGXHFC2Qdm2buKd6FZDZuj6AX1v7ei+lRDjHoR7KGRrA6+MQZLcD4aB8I2+rDc5QHfcwl8HzZniW0et8K/mrxfsLHBgd55js3GZw6nFCvyRfSQR/tgTzBH+rD+0J+mzzN8rDXBp3uFgeNodEwYFnzHpi5lX8I8pLaC3U8AoqKzgwmRjbvzfzyuZ848HySEQ1BjmgTyzBfTI9nvvR8sfrx5y0By+F5oPrwTGJf+r7puJbyE1iDg7Z75OaBH75zE+Q34/bot5e/o+VNel393tqhTT20YFPpNEdrSummGTerblj0yYI/EYs++nBZjp9euZUnkPLSRqSOUlnIWdVDU4aRYMqLWYsye/SVmp5bcVjPGxT9tRizi+CFHpt0aV2/X/HYCecjynPouU19dmbiIKUrn/h4xpmCcYUuzjmMjYxVvuQsRUmHXtuks3j7ooD6c8H60L9L+fb08oAepbUlqmcXfkRu4kXjq89fvP1v3vqE7tP/eETbjfY3NNYHPP8xkeGRLz20X4XQg/5Yh1ITQwOb/r+3f0Ivb5jP7kSeQzYxytWyu5KcBygjtOBPYL7K2jLtOI9941kV62rGvQs/fZ6unfiviikh65fW/0H1169+uEAxIs4X3F2crXpoYGBgXmB2nD9o6rOBfR98/y5KTx5E5bVH/bCtnKcovCMdem2TDrCsqT9H/e9seVPptqeXR4d+cvlDit3/zgeXCsYHVoc+H+0D1gdWRvsxhxmaOtIPY9uwP+TbU+KgMTSwKbAcsCZiYGgvlozj07MYUsgo08gnOiGU1Rxhj+jvETAl0oE5gflAT/TQJaxRAWYEtsRzlDfrRXpcdB/lA3RRD/hCOvKbdFAf2ol8qB/lIRekIz/qQzlgdzw3y6E+0EW7EZtzFPBr0ltz4BPK5gl6TwtWyBFIEIJNcVQw9Mn47Da3NPudB4jyMouu5dn6j6bfjKSTxsB4kknOF7Rhcg/2PH7+4EmJ8kPQhX4bfN00ba6fXt1GB+2F7yHqF0jki32Pp4v9e2BfReTxfY406O1NfsGXOYdBuskf0ntabO3Qr988lwZPuZB2f7RUzyU89CnrdidPobK8XE0/vHkTRcXGUtnhQ5QwIJ2aGho0/bzrv83HtoVRVFRonmrV0Q5izkVEPyz7cQCrC/aVQQHYeeqx03Rx1vmHu95nbUwO3TZ7nlbdUexu2tSgflkHkK/DL2fd4dckPL9/yZ26Emyei4jnT/zjIcrhNYnHv/lcwPK3LJpL04Z/ib553rcDPpd1iY92v093XnGf33PYDMncQuYbt8/5td/z9m6sGLrvkKHU2tJCYRGRei5hzoZ1VLxnNw3IGq/pMfGe/Sxam5spOiGRdaSxmr5p0yZKSkqiCRMmtFd3j3huzkWgHwZWf3HdH3TuAewMoQCzy8Y1AmMQOordTZsa1G+uA4A+njcxTMTeIXgmMZ5/ZcI3aAN3SjPg+RDejuEwb6dgBjzHuoT5HHp5U69u5rPdWzF0GJ+QWZSdzaOH51zC4dNnUmNtjZ5ZKOlyLRqMAVkTqK7cc5ahpDdzB2/hH4ILHgnY9PnAvsDcwM6QGzBxemIGjeg7GslefT8wtonBUQ7YHfRBAPpprAOYenw8FzjUyAthtucf7/6AZo+50vo8MSaFRDVrK491CfM59PKmXh38txdbIUdLYyP15k7di3Gsb0A693TPMzbtlIB0M79vWXd9ogRM7IwcNkyM/MFid+QHNgd9rAPY9OqC1WXivPHwhhP0/KAhsa08jna2PQcN87mH3xP3UUH+9mJrhzYL3n13Pd17bzTdfHM9paYS3XPP8YUMM6+7dxI4VxLwH359uJg/fz4tWLDAm8IDsobGxjbatevYjfepu3AS6BoSsE4KZ82apSt0YPPIkTZ6/PEGmjYtjAoKZAXPBSeBrieBoCEHWK+tbaPYWA9uRpqLnQS6igSskMNkUDC0hLvvbqC77vJcm3ncvZPAuZaAtUPbMDSvn4iCwwUngS4pgQ5jaNHiSad2wUmgK0qgwxi6ie3TeWWbDPV0V2yb46kHSsAKOUxZAEM/+GA9/eAHdeZjd+8k0CUkYO3QNgz9rW9F0GWXWYt1iUY5JnquBDqMoUVUN9wQ0XMl5lrepSXQYQzdpVvjmOvxEggaOwBD//CHdbRwYWOPF5wTQNeUgLVD2zD0yJG9aP9+t/TdNV+n46rDGDolpRfl5LiVFdd1uqYEOoyh63nVO9pZjnbNt+m4IivkMGUDDP3ZZ810223OlsOUj7vvGhKwdmgbhn777Wa39N013p3jIoAE/j91MytDff97PgAAAABJRU5ErkJggg==;rounded=0;clipPath=inset(1.49% 4.44% 6.44% 0%);" vertex="1" parent="2">
                    <mxGeometry x="8.23" y="40" width="166.45" height="180" as="geometry"/>
                </mxCell>
            </root>
        </mxGraphModel>
    </diagram>
</mxfile>